# xmcd
#
# Track frame offsets: 
#        150
#        17442
#        38187
#        54732
#        72557
#        95117
#        115387
#        135037
#        159302
#        172785
#        188702
#        202840
#
# Disc length: 3025 seconds
#
# Revision: 2
# Processed by: cddbd v1.5.2PL0 Copyright (c) Steve Scherf et al.
# Submitted via: ExactAudioCopy v0.95b4
#
DISCID=960bcf0c
DTITLE=Keri Leigh - Arrival
DYEAR=1900
DGENRE=Blues
TTITLE0=King Biscuit Time/Use What You Got
TTITLE1=I Ain't Got Nobody (For Real)
TTITLE2=Here's Your Mop Mr. Johnson
TTITLE3=Don't Keep Me Wondering
TTITLE4=Something's Got A Hold On Me
TTITLE5=New Thang
TTITLE6=Voodoo Woman
TTITLE7=Check Your Sources
TTITLE8=Hobo Train
TTITLE9=Get Up
TTITLE10=It's The Last Time
TTITLE11=Florida Sunset
EXTD=
EXTT0=
EXTT1=
EXTT2=
EXTT3=
EXTT4=
EXTT5=
EXTT6=
EXTT7=
EXTT8=
EXTT9=
EXTT10=
EXTT11=
PLAYORDER=
